<svg id="Layer_1" data-name="Layer 1" xmlns="http://www.w3.org/2000/svg" viewBox="0 0 500 498"><defs><style>.cls-1{fill:#39b54a;}.cls-2{fill:#333;}.cls-3,.cls-4{fill:#fff;}.cls-4{font-size:41.46px;font-family:Lato;}</style></defs><title>logo</title><path class="cls-1" d="M522,317l3-33a8,8,0,0,0-7-9H508a8,8,0,0,1-8-8,226,226,0,0,0-3-29,8,8,0,0,1,6-9l10-3a8,8,0,0,0,5-11l-10-32a8,8,0,0,0-11-5l-10,3a8,8,0,0,1-10-4,225,225,0,0,0-15-25,8,8,0,0,1,1-11l8-7a8,8,0,0,0,1-12L450,95a8,8,0,0,0-12-1l-8,7a8,8,0,0,1-11,0L395,85a8,8,0,0,1-3-11l4-10a8,8,0,0,0-4-11L362,40a8,8,0,0,0-11,4l-4,10a8,8,0,0,1-10,5l-29-6a8,8,0,0,1-7-8V33a8,8,0,0,0-8-8H259a8,8,0,0,0-8,8V44a8,8,0,0,1-7,8l-29,6a8,8,0,0,1-10-5l-4-9a8,8,0,0,0-11-4L159,54a8,8,0,0,0-4,11l4,9a8,8,0,0,1-3,11l-24,17a8,8,0,0,1-11,0l-8-7a8,8,0,0,0-12,1L79,120a8,8,0,0,0,1,12l8,7a8,8,0,0,1,1,11,225,225,0,0,0-15,26,8,8,0,0,1-10,4l-9-3a8,8,0,0,0-11,5L33,214a8,8,0,0,0,5,11l9,3a8,8,0,0,1,6,9,226,226,0,0,0-3,30,8,8,0,0,1-8,8H33a8,8,0,0,0-7,9l3,33a8,8,0,0,0,9,7H48a8,8,0,0,1,9,6,223,223,0,0,0,9,28,8,8,0,0,1-4,10l-8,5a8,8,0,0,0-3,11l17,29a8,8,0,0,0,11,3l8-5a8,8,0,0,1,11,2l20,22a8,8,0,0,1,1,11l-6,8a8,8,0,0,0,2,12l27,20a8,8,0,0,0,12-2l6-8a8,8,0,0,1,11-2l27,12a8,8,0,0,1,5,10l-2,9a8,8,0,0,0,6,10l32,7a8,8,0,0,0,10-6l2-10a8,8,0,0,1,9-7h30a8,8,0,0,1,9,7l2,10a8,8,0,0,0,10,6l32-7a8,8,0,0,0,6-10l-2-10a8,8,0,0,1,5-10l27-12a8,8,0,0,1,11,2l6,8a8,8,0,0,0,12,2l27-20a8,8,0,0,0,2-12l-6-8a8,8,0,0,1,1-11l20-22a8,8,0,0,1,11-2l9,5a8,8,0,0,0,11-3l17-29a8,8,0,0,0-3-11l-9-5a8,8,0,0,1-4-10,223,223,0,0,0,9-28,8,8,0,0,1,9-6h10A8,8,0,0,0,522,317Z" transform="translate(-26 -25)"/><circle class="cls-2" cx="250" cy="250" r="203"/><path class="cls-3" d="M216,273H200V257H167l-12,13-3,2H134l66-69h17v69Zm-40-26h25V217l-4,5-4,4Z" transform="translate(-26 -25)"/><path class="cls-3" d="M259,224l-15,31q-2,4-1,6t6,2h7l7-3,17-35h16l-24,49H262c-2,0-3-1-3-2v-3l-10,5-11,2h-8l-4-4a10,10,0,0,1-1-6,23,23,0,0,1,2-8l15-31h16Z" transform="translate(-26 -25)"/><path class="cls-3" d="M305,274h-7l-4-3a7,7,0,0,1-1-4,16,16,0,0,1,2-6l13-26h-7a2,2,0,0,1,0-2l3-5h10l9-13,5-2h8l-7,15h15l-4,9H323l-12,26q-1,2,0,3h10l2,6-9,3h-9Z" transform="translate(-26 -25)"/><path class="cls-3" d="M378,223l11,2a14,14,0,0,1,7,5,13,13,0,0,1,2,8,27,27,0,0,1-3,11,43,43,0,0,1-7,11l-10,8-12,5-13,2-11-2a14,14,0,0,1-7-5,13,13,0,0,1-2-8,26,26,0,0,1,3-11,42,42,0,0,1,7-11l10-8,12-5Zm-20,41a19,19,0,0,0,12-4q5-4,9-12t2-11-8-4a19,19,0,0,0-12,4,31,31,0,0,0-9,11q-4,8-2,12T358,264Z" transform="translate(-26 -25)"/><text class="cls-4" transform="translate(105 289) scale(1.39 1)">e<tspan x="22" y="0">n</tspan><tspan x="45" y="0">thusiast</tspan></text></svg>